{
  "accessors": [
    {
      "bufferView": 2,
      "componentType": 5126,
      "count": 12312,
      "max": [
        1.0076020956039429,
        0.9984396696090698,
        0.02729390189051628
      ],
      "min": [
        -1.0076020956039429,
        -0.9984396696090698,
        -3.376406192779541
      ],
      "type": "VEC3"
    },
    {
      "bufferView": 2,
      "byteOffset": 147744,
      "componentType": 5126,
      "count": 12312,
      "max": [
        0.9999791383743286,
        0.9999783039093018,
        1.0
      ],
      "min": [
        -0.9999791383743286,
        -0.9999783039093018,
        -0.9999747276306152
      ],
      "type": "VEC3"
    },
    {
      "bufferView": 1,
      "componentType": 5126,
      "count": 12312,
      "max": [
        0.9950904250144958,
        0.9890606999397278
      ],
      "min": [
        0.02198786288499832,
        0.009765624068677425
      ],
      "type": "VEC2"
    },
    {
      "bufferView": 0,
      "componentType": 5125,
      "count": 59664,
      "type": "SCALAR"
    },
    {
      "bufferView": 2,
      "byteOffset": 295488,
      "componentType": 5126,
      "count": 7840,
      "max": [
        0.4799772799015045,
        0.819260835647583,
        0.4704298973083496
      ],
      "min": [
        -0.47997722029685974,
        -0.5193462371826172,
        -0.47042983770370483
      ],
      "type": "VEC3"
    },
    {
      "bufferView": 2,
      "byteOffset": 389568,
      "componentType": 5126,
      "count": 7840,
      "max": [
        0.999703049659729,
        0.41155582666397095,
        0.99983811378479
      ],
      "min": [
        -0.999703049659729,
        -0.8906040787696838,
        -0.99983811378479
      ],
      "type": "VEC3"
    },
    {
      "bufferView": 1,
      "byteOffset": 98496,
      "componentType": 5126,
      "count": 7840,
      "max": [
        0.996667742729187,
        0.992893636226654
      ],
      "min": [
        0.8322067260742188,
        0.7751515507698059
      ],
      "type": "VEC2"
    },
    {
      "bufferView": 0,
      "byteOffset": 238656,
      "componentType": 5125,
      "count": 44016,
      "type": "SCALAR"
    }
  ],
  "asset": {
    "extras": {
      "author": "assetfactory (https://sketchfab.com/assetfactory)",
      "license": "SKETCHFAB Standard (https://sketchfab.com/licenses)",
      "source": "https://sketchfab.com/3d-models/colorful-jellyfish-8534b59ebe2849efaa470394310c3204",
      "title": "Colorful jellyfish"
    },
    "generator": "Sketchfab-16.33.0",
    "version": "2.0"
  },
  "bufferViews": [
    {
      "buffer": 0,
      "byteLength": 414720,
      "name": "floatBufferViews",
      "target": 34963
    },
    {
      "buffer": 0,
      "byteLength": 161216,
      "byteOffset": 414720,
      "byteStride": 8,
      "name": "floatBufferViews",
      "target": 34962
    },
    {
      "buffer": 0,
      "byteLength": 483648,
      "byteOffset": 575936,
      "byteStride": 12,
      "name": "floatBufferViews",
      "target": 34962
    }
  ],
  "buffers": [
    {
      "byteLength": 1059584,
      "uri": "scene.bin"
    }
  ],
  "images": [
    {
      "uri": "textures/Jellyfish1_baseColor.jpeg"
    }
  ],
  "materials": [
    {
      "alphaMode": "BLEND",
      "doubleSided": true,
      "name": "Jellyfish1",
      "pbrMetallicRoughness": {
        "baseColorFactor": [
          1.0,
          1.0,
          1.0,
          0.722529704
        ],
        "baseColorTexture": {
          "index": 0
        },
        "metallicFactor": 0.0,
        "roughnessFactor": 0.5021502736
      }
    }
  ],
  "meshes": [
    {
      "name": "Cylinder_Jellyfish1_0",
      "primitives": [
        {
          "attributes": {
            "NORMAL": 1,
            "POSITION": 0,
            "TEXCOORD_0": 2
          },
          "indices": 3,
          "material": 0,
          "mode": 4
        }
      ]
    },
    {
      "name": "BezierCurve_Jellyfish1_0",
      "primitives": [
        {
          "attributes": {
            "NORMAL": 5,
            "POSITION": 4,
            "TEXCOORD_0": 6
          },
          "indices": 7,
          "material": 0,
          "mode": 4
        }
      ]
    }
  ],
  "nodes": [
    {
      "children": [
        1
      ],
      "matrix": [
        1.0,
        0.0,
        0.0,
        0.0,
        0.0,
        2.220446049250313e-16,
        -1.0,
        0.0,
        0.0,
        1.0,
        2.220446049250313e-16,
        0.0,
        0.0,
        0.0,
        0.0,
        1.0
      ],
      "name": "Sketchfab_model"
    },
    {
      "children": [
        2
      ],
      "matrix": [
        0.009999999776482582,
        0.0,
        0.0,
        0.0,
        0.0,
        0.0,
        0.009999999776482582,
        0.0,
        0.0,
        -0.009999999776482582,
        0.0,
        0.0,
        0.0,
        0.0,
        0.0,
        1.0
      ],
      "name": "Jellyfish1.fbx"
    },
    {
      "children": [
        3,
        5
      ],
      "name": "RootNode"
    },
    {
      "children": [
        4
      ],
      "matrix": [
        62.14285659790039,
        0.0,
        0.0,
        0.0,
        0.0,
        -1.0124356416279086e-05,
        -62.142856597899566,
        0.0,
        0.0,
        62.142856597899566,
        -1.0124356416279086e-05,
        0.0,
        0.0,
        112.5733642578125,
        0.0,
        1.0
      ],
      "name": "Cylinder"
    },
    {
      "mesh": 0,
      "name": "Cylinder_Jellyfish1_0"
    },
    {
      "children": [
        6
      ],
      "matrix": [
        100.0,
        0.0,
        0.0,
        0.0,
        0.0,
        99.9999999999999,
        4.371138828673792e-06,
        0.0,
        0.0,
        -4.371138828673792e-06,
        99.9999999999999,
        0.0,
        0.0,
        0.0,
        0.0,
        1.0
      ],
      "name": "BezierCurve"
    },
    {
      "mesh": 1,
      "name": "BezierCurve_Jellyfish1_0"
    }
  ],
  "samplers": [
    {
      "magFilter": 9729,
      "minFilter": 9987,
      "wrapS": 10497,
      "wrapT": 10497
    }
  ],
  "scene": 0,
  "scenes": [
    {
      "name": "Sketchfab_Scene",
      "nodes": [
        0
      ]
    }
  ],
  "textures": [
    {
      "sampler": 0,
      "source": 0
    }
  ]
}
